<svg width="25" height="40" viewBox="0 0 7 11" fill="none" xmlns="http://www.w3.org/2000/svg">
<path d="M1.67471 1.87768C1.25373 2.32697 0.990049 2.98146 1.00029 3.59707C1.02167 4.88352 1.60154 5.3705 2.52885 7.14106C2.86289 7.92018 3.21153 8.74458 3.54311 10.11C3.58919 10.3114 3.63413 10.4985 3.65492 10.5147C3.6757 10.5309 3.72065 10.3431 3.76673 10.1417C4.09831 8.77635 4.44695 7.9526 4.78098 7.17348C5.7083 5.40292 6.28816 4.91593 6.30955 3.62948C6.31979 3.01387 6.05545 2.35872 5.63447 1.90944C5.15357 1.3962 4.42823 1.01636 3.65492 1.00048C2.88161 0.984587 2.15561 1.36444 1.67471 1.87768Z" fill="#5CB85C" stroke="#3D6E3D" stroke-width="0.282222"/>
<path d="M3.65496 4.66049C4.2159 4.66049 4.67064 4.20576 4.67064 3.64482C4.67064 3.08388 4.2159 2.62915 3.65496 2.62915C3.09402 2.62915 2.63928 3.08388 2.63928 3.64482C2.63928 4.20576 3.09402 4.66049 3.65496 4.66049Z" fill="#590000"/>
</svg>
