<svg width="25" height="40" viewBox="0 0 6 10" fill="none" xmlns="http://www.w3.org/2000/svg">
<path d="M0.842071 1.04492C0.421093 1.4942 0.157407 2.14869 0.167646 2.76431C0.189027 4.05076 0.768896 4.53774 1.69621 6.3083C2.03025 7.08741 2.37888 7.91182 2.71046 9.2772C2.75655 9.47861 2.80149 9.66569 2.82228 9.6819C2.84305 9.69813 2.88801 9.51038 2.93409 9.30897C3.26567 7.94358 3.6143 7.11983 3.94834 6.34072C4.87566 4.57016 5.45552 4.08317 5.47691 2.79672C5.48715 2.1811 5.22281 1.52596 4.80183 1.07667C4.32093 0.563434 3.59558 0.183601 2.82228 0.167717C2.04897 0.151824 1.32297 0.531678 0.842071 1.04492Z" fill="#FFC107" stroke="#B88A00" stroke-width="0.282222"/>
<path d="M2.82232 3.82773C3.38326 3.82773 3.838 3.373 3.838 2.81206C3.838 2.25112 3.38326 1.79639 2.82232 1.79639C2.26138 1.79639 1.80664 2.25112 1.80664 2.81206C1.80664 3.373 2.26138 3.82773 2.82232 3.82773Z" fill="#590000"/>
</svg>
